<svg width="180" height="180" viewBox="0 0 180 180" fill="none" xmlns="http://www.w3.org/2000/svg">
<circle cx="90" cy="90" r="90" fill="#70AEFF"/>
<path d="M117.141 104.261C114.879 90.7295 101.884 79.7278 88.1611 79.7278C73.2494 79.7278 60.1394 91.8028 58.8744 106.676C58.3761 112.426 60.2161 117.869 64.0111 121.971C67.7677 126.073 73.0577 128.334 78.8077 128.334H96.7478C103.226 128.334 108.899 125.804 112.771 121.243C116.643 116.681 118.176 110.624 117.141 104.261Z" fill="white"/>
<path d="M83.4051 74.13C89.6082 74.13 94.6368 69.1014 94.6368 62.8983C94.6368 56.6953 89.6082 51.6667 83.4051 51.6667C77.2021 51.6667 72.1735 56.6953 72.1735 62.8983C72.1735 69.1014 77.2021 74.13 83.4051 74.13Z" fill="white"/>
<path d="M108.937 78.609C114.102 78.609 118.29 74.4214 118.29 69.2557C118.29 64.09 114.102 59.9023 108.937 59.9023C103.771 59.9023 99.5833 64.09 99.5833 69.2557C99.5833 74.4214 103.771 78.609 108.937 78.609Z" fill="white"/>
<path d="M122.773 93.57C126.902 93.57 130.248 90.2231 130.248 86.0946C130.248 81.9664 126.902 78.6198 122.773 78.6198C118.645 78.6198 115.298 81.9664 115.298 86.0946C115.298 90.2231 118.645 93.57 122.773 93.57Z" fill="white"/>
<path d="M59.1033 86.0961C64.269 86.0961 68.4567 81.9084 68.4567 76.7426C68.4567 71.577 64.269 67.3893 59.1033 67.3893C53.9376 67.3893 49.75 71.577 49.75 76.7426C49.75 81.9084 53.9376 86.0961 59.1033 86.0961Z" fill="white"/>
</svg>
